HIERARCHY
ROOT Hips
{
	OFFSET 0.00000 0.00000 0.00000
	CHANNELS 6 Xposition Yposition Zposition Yrotation Zrotation Xrotation 
	JOINT Lumbar
	{
		OFFSET 0 0 0
		CHANNELS 3 Zrotation Xrotation Yrotation
		JOINT Neck
		{
			OFFSET 0.00 0.2701 0.00
			CHANNELS 3 Zrotation Xrotation Yrotation
			End Site
			{
				OFFSET 0.00 0.1379 0.00
			}
		}
		JOINT RightShoulder
		{
			OFFSET 0.0119 0.2289 0.1181
			CHANNELS 3 Zrotation Xrotation Yrotation
			JOINT RightElbow
			{
				OFFSET 0.00 -0.1475 0.00
				CHANNELS 2 Zrotation Yrotation
				JOINT RightWrist
				{
					OFFSET 0.00 -0.1605 0.00
					CHANNELS 2 Zrotation Xrotation
					End Site
					{
						OFFSET 0.0040 -0.1068 0.0006
					}
				}
			}
		}
		JOINT LeftShoulder
		{
			OFFSET 0.0119 0.2289 -0.1181
			CHANNELS 3 Zrotation Xrotation Yrotation
			JOINT LeftElbow
			{
				OFFSET 0.00 -0.1475 0.00
				CHANNELS 2 Zrotation Yrotation
				JOINT LeftWrist
				{
					OFFSET 0.00 -0.1605 0.00
					CHANNELS 2 Zrotation Xrotation
					End Site
					{
						OFFSET 0.0040 -0.1068 -0.0006
					}
				}
			}
		}
	}
	JOINT RightHip
	{
		OFFSET 0.0316 -0.0424 0.0458
		CHANNELS 3 Zrotation Xrotation Yrotation
		JOINT RightKnee
		{
			OFFSET 0.00 -0.2438 0.00
			CHANNELS 1 Zrotation
			JOINT RightAnkle
			{
				OFFSET 0.00 -0.2449 0.00
				CHANNELS 3 Zrotation Xrotation Yrotation
				End Site
				{
					OFFSET 0.1237 -0.0542 0.0051
				}
			}
		}
	}
	JOINT LeftHip
	{
		OFFSET 0.0316 -0.0424 -0.0458
		CHANNELS 3 Zrotation Xrotation Yrotation
		JOINT LeftKnee
		{
			OFFSET 0.00 -0.2438 0.00
			CHANNELS 1 Zrotation
			JOINT LeftAnkle
			{
				OFFSET 0.00 -0.2449 0.00
				CHANNELS 3 Zrotation Xrotation Yrotation
				End Site
				{
					OFFSET 0.1237 -0.0542 -0.0051
				}
			}
		}
	}
}
MOTION
Frames: 22
Frame Time: 0.02
-0.56281 0.56963 -0.01939 547.64194 0 0.13915 10.84549 -1.99064 -9.86507 -12.4345 5.19945 -7.08333 -8.68507 -17.11389 -30.29627 128.80493 57.2961 -17.70687 1.40227 23.35528 -3.59147 -59.10393 64.39461 -92.7648 21.21857 1.75845 6.16511 4.87849 5.94721 -63.14592 1.62634 -0.50368 4.88239 10.75406 -8.10896 10.53121 -15.77868 4.93188 6.66993 14.00068
-0.56917 0.5708 -0.01703 549.45518 0 -0.52341 10.41637 -1.48651 -10.25068 -12.5884 5.54318 -7.19208 -8.62066 -17.27984 -30.42466 128.79786 56.82399 -17.77462 1.48142 24.176 -3.69857 -59.5093 64.0675 -92.401 20.22854 2.02785 8.18618 5.00514 4.97696 -63.32291 1.81803 -1.13364 3.18577 9.99258 -7.85111 8.8428 -15.64794 5.22113 6.77955 13.90312
-0.57499 0.57195 -0.0147 551.58161 0 -1.29747 9.91461 -0.90043 -10.67835 -12.67478 5.84114 -7.37319 -8.74456 -17.33734 -30.58106 128.70457 56.16329 -17.72356 1.62581 24.93212 -3.8471 -60.00017 63.5278 -91.89474 18.81672 2.35014 10.02389 5.24248 4.16065 -62.38956 2.26626 -2.05517 0.66521 9.31991 -7.48269 6.87691 -15.62033 5.46749 6.86562 13.80869
-0.58104 0.57309 -0.01236 553.5671 0 -2.01155 9.44501 -0.35817 -11.07793 -12.78886 6.14823 -7.51554 -8.78113 -17.43352 -30.72219 128.65005 55.60846 -17.71149 1.73832 25.67735 -3.97464 -60.41743 63.10873 -91.45264 17.61364 2.63029 11.91877 5.4316 3.3431 -61.89429 2.57814 -2.82075 -1.47147 8.61428 -7.16982 5.03854 -15.55888 5.73697 6.96722 13.71635
-0.58713 0.57432 -0.01 555.55009 0 -2.77195 8.97126 0.21715 -11.51595 -12.90736 6.50815 -7.68257 -8.83206 -17.57884 -30.87098 128.59804 54.97166 -17.76624 1.85812 26.58518 -4.1111 -60.97672 62.59808 -91.00902 16.32655 2.98525 13.93704 5.61661 2.22881 -61.67535 2.98078 -3.69886 -3.67334 7.8773 -6.82877 3.19196 -15.43532 5.98879 7.04857 13.60892
-0.59303 0.57534 -0.00769 557.61175 0 -3.45838 8.49234 0.74053 -11.88265 -13.00463 6.74414 -7.81602 -8.89453 -17.59329 -31.00993 128.52006 54.46653 -17.65255 1.97794 27.14406 -4.23607 -61.26557 62.22419 -90.53846 15.11918 3.19837 15.64835 5.83236 1.77699 -60.61977 3.25416 -4.40781 -5.91653 7.22637 -6.52323 1.29671 -15.46791 6.26804 7.16626 13.53332
-0.59855 0.57581 -0.00556 559.8098 0 -3.9287 8.0117 1.10658 -12.05498 -13.04931 6.66924 -7.83182 -8.95 -17.2855 -31.13589 128.3908 54.28612 -17.09988 2.09459 26.72723 -4.35415 -60.7456 62.27653 -90.00302 14.23348 2.99667 16.57372 6.13385 3.04936 -57.51507 3.08805 -4.56285 -8.17997 6.79572 -6.3322 -0.65603 -15.91127 6.63433 7.39264 13.54985
-0.60391 0.57605 -0.00348 562.07665 0 -4.3169 7.53071 1.41566 -12.1518 -13.07812 6.46715 -7.81271 -9.00832 -16.84666 -31.24772 128.23822 54.25926 -16.38237 2.2066 25.96758 -4.45322 -59.95814 62.47291 -89.45166 13.44592 2.65225 17.19142 6.45662 4.99383 -53.61021 2.78598 -4.53789 -10.43328 6.44754 -6.18318 -2.64939 -16.50793 7.02987 7.6559 13.59724
-0.60935 0.57638 -0.00136 564.314 0 -4.73196 7.05389 1.74615 -12.27481 -13.12189 6.30996 -7.81409 -9.05974 -16.45941 -31.35295 128.09683 54.21594 -15.74097 2.3135 25.38361 -4.53855 -59.32047 62.60431 -88.92269 12.61442 2.38018 17.9378 6.75149 6.67735 -50.07779 2.55703 -4.60394 -12.61964 6.05917 -6.02289 -4.62967 -17.03287 7.41187 7.90063 13.62762
-0.61476 0.57678 0.0007 566.55413 0 -5.1958 6.55605 2.09865 -12.43351 -13.12973 6.20596 -7.79804 -9.14159 -16.10316 -31.51415 127.9506 53.94009 -15.08805 2.45517 24.71242 -4.7197 -58.56733 62.72696 -88.31922 11.7595 2.07899 18.72647 7.12866 8.18635 -46.46516 2.28688 -4.64348 -15.14115 5.68658 -5.82654 -6.59711 -17.57181 7.79348 8.15217 13.67166
-0.6202 0.57698 0.00288 568.80164 0 -5.53628 6.1047 2.3905 -12.49949 -13.21044 5.96119 -7.80963 -9.15816 -15.65126 -31.55491 127.80923 54.18876 -14.42449 2.51986 24.1435 -4.69629 -57.98915 62.90413 -87.87591 10.98937 1.80306 19.35454 7.33621 10.20646 -42.84938 2.06999 -4.68923 -16.94632 5.29798 -5.71558 -8.59713 -18.11434 8.18329 8.39837 13.69332
-0.62572 0.57665 0.00536 571.04394 0 -5.56247 5.76733 2.53011 -12.32704 -13.48951 5.36232 -7.90112 -8.99313 -14.97924 -31.26797 127.69389 55.83606 -13.74643 2.39585 23.93159 -4.11197 -57.9673 63.20294 -87.82001 10.37001 1.63863 19.62902 7.08664 13.55798 -39.38424 2.00339 -4.81533 -16.81758 4.85837 -5.83997 -10.67694 -18.64995 8.59048 8.62289 13.65547
-0.6313 0.57611 0.00799 573.2918 0 -5.46602 5.48021 2.61015 -12.06407 -13.84424 4.62599 -8.02238 -8.76123 -14.2139 -30.86003 127.58326 58.00774 -13.06849 2.19042 23.83659 -3.32247 -58.12897 63.55154 -87.93702 9.84527 1.50309 19.75002 6.66337 17.38327 -35.95875 1.99801 -4.94919 -15.95869 4.39713 -6.04684 -12.7865 -19.18005 9.00509 8.84054 13.59168
-0.63689 0.57567 0.01057 575.54068 0 -5.42052 5.17953 2.71592 -11.84262 -14.16888 3.95019 -8.1327 -8.5597 -13.48382 -30.50628 127.46652 59.94999 -12.40801 2.00645 23.69441 -2.62709 -58.201 63.87423 -88.01477 9.31906 1.3495 19.93346 6.30654 20.93655 -32.5411 1.98469 -5.06493 -15.39954 3.93617 -6.21105 -14.88152 -19.69798 9.41492 9.06004 13.53396
-0.64234 0.57522 0.01304 577.77531 0 -5.39075 4.83818 2.82464 -11.61603 -14.47411 3.27707 -8.23024 -8.35942 -12.7788 -30.15495 127.36613 61.86563 -11.66857 1.8861 23.51483 -1.92705 -58.28974 64.21559 -87.92797 8.62308 1.21144 20.13958 5.99766 24.75626 -28.97416 1.8884 -5.23461 -14.96624 3.51729 -6.40162 -16.98357 -20.28116 9.83043 9.28599 13.50356
-0.64809 0.57475 0.01579 580.04234 0 -5.30226 4.5953 2.91478 -11.38078 -14.83881 2.5687 -8.36279 -8.13943 -12.00178 -29.77062 127.23251 63.95215 -11.09478 1.6163 23.44574 -1.18863 -58.39114 64.52811 -88.22255 8.29895 1.05009 20.2627 5.55442 28.12039 -25.75254 1.97423 -5.29808 -14.10971 3.00603 -6.55244 -19.07605 -20.72777 10.23704 9.49664 13.40705
-0.65458 0.57426 0.01927 582.37648 0 -5.06408 4.59656 2.96022 -11.13432 -15.34134 1.78735 -8.57649 -7.89094 -11.04557 -29.31993 127.012 66.44118 -10.98921 0.93397 23.65172 -0.39268 -58.48026 64.74697 -89.55017 9.0039 0.81505 20.22395 4.72178 30.14106 -23.35619 2.6093 -5.04977 -12.1562 2.23235 -6.60637 -21.14486 -20.77556 10.60344 9.66392 13.15745
-0.66138 0.57376 0.02303 584.74634 0 -4.77497 4.69795 2.99091 -10.88454 -15.90216 0.97852 -8.82565 -7.62309 -10.02256 -28.84139 126.75728 69.07114 -11.04994 0.10815 23.96677 0.43329 -58.57747 64.93414 -91.25071 10.07409 0.55681 20.10277 3.77107 31.67555 -21.33134 3.41553 -4.69833 -9.82189 1.36891 -6.61094 -23.19984 -20.69018 10.96267 9.81596 12.83818
-0.66809 0.57327 0.02668 587.11354 0 -4.52073 4.7638 3.03364 -10.6427 -16.44221 0.18794 -9.06465 -7.35782 -9.03147 -28.37858 126.51387 71.59865 -11.02731 -0.63951 24.23467 1.24565 -58.67399 65.13705 -92.76715 10.96065 0.31131 20.00165 2.91437 33.4121 -19.21952 4.10289 -4.40584 -7.73202 0.55374 -6.61635 -25.25573 -20.67937 11.33458 9.97714 12.53492
-0.67459 0.57274 0.03025 589.42468 0 -4.21155 4.78986 3.05111 -10.36996 -16.96284 -0.63535 -9.28129 -7.11653 -8.02573 -27.89768 126.28684 74.31149 -11.03431 -1.44633 24.49656 2.06951 -58.76454 65.33851 -94.35491 11.9273 0.0571 19.9693 1.88172 35.25462 -16.76684 4.9626 -4.06234 -5.31531 -0.29585 -6.7163 -27.3398 -20.60683 11.66856 10.13043 12.29504
-0.68159 0.57229 0.03407 591.85975 0 -4.00769 4.92125 3.11926 -10.16267 -17.53415 -1.39084 -9.55034 -6.82148 -7.04178 -27.45052 126.01958 76.6589 -11.02303 -2.16086 24.79495 2.86829 -58.86657 65.53181 -95.87594 12.80983 -0.18438 19.7751 1.1892 36.74311 -15.10706 5.50717 -3.80073 -3.49843 -1.09208 -6.60594 -29.35598 -20.63422 12.07775 10.29451 11.90919
-0.68992 0.57202 0.03853 594.63849 0 -4.09532 5.32434 3.32397 -10.1315 -18.25243 -1.98871 -9.97385 -6.38471 -6.08488 -27.09498 125.63233 78.01042 -10.886 -2.60268 25.17044 3.63672 -59.00231 65.73569 -97.15817 13.39394 -0.3884 19.16397 1.46985 37.46882 -15.58847 5.10509 -3.78884 -3.43508 -1.74106 -5.93276 -31.23232 -20.94626 12.71234 10.50929 11.118
